Coordinates
version=1
nRows=17
nColumns=24
inDegrees=yes

Units are S.I. units (second, meters, Newtons, ...)
Angles are in degrees.

endheader
time	pelvis_tilt	pelvis_list	pelvis_rotation	pelvis_tx	pelvis_ty	pelvis_tz	hip_flexion_r	hip_adduction_r	hip_rotation_r	knee_angle_r	ankle_angle_r	subtalar_angle_r	mtp_angle_r	hip_flexion_l	hip_adduction_l	hip_rotation_l	knee_angle_l	ankle_angle_l	subtalar_angle_l	mtp_angle_l	lumbar_extension	lumbar_bending	lumbar_rotation
      4.66000000	     -7.40036387	      2.76481655	    -10.61285793	     -0.62776818	     -0.04487215	      0.61872735	     -9.02569983	     -1.39808778	      4.40103181	    -11.88093826	     13.42581411	      0.97966516	      5.67339319	     36.11257554	     -2.96414206	    -21.97843792	    -14.50880513	     -1.41596838	     13.41086856	      6.88760620	      5.05263243	     -2.13479741	     14.60911030
      4.66500000	     -7.45249552	      3.09675349	    -10.74495754	     -0.62035040	     -0.04602885	      0.61881064	     -9.16166819	     -1.86157624	      4.37642741	    -12.34429711	     13.35194926	      1.19872306	      5.76684376	     36.15559520	     -2.71496771	    -22.16489778	    -15.12961963	     -1.78562896	     12.94729608	      7.26746880	      5.26405313	     -2.52737599	     14.69040346
      4.67000000	     -7.51431871	      3.44540871	    -10.86651014	     -0.61290673	     -0.04714651	      0.61886449	     -9.26632874	     -2.34490490	      4.33505645	    -12.83810109	     13.23246030	      1.44112453	      5.87901468	     36.20701416	     -2.44341426	    -22.29257586	    -15.73433693	     -2.32256985	     12.48368401	      7.87925916	      5.48945090	     -2.94177827	     14.75246757
      4.67500000	     -7.58697002	      3.81204500	    -10.96665381	     -0.60543534	     -0.04820064	      0.61887752	     -9.33720718	     -2.84764411	      4.26827087	    -13.36547713	     13.03905837	      1.70632954	      6.01388901	     36.26868486	     -2.14182225	    -22.35898543	    -16.30922055	     -3.01982221	     12.02583650	      8.67614326	      5.73123472	     -3.37582101	     14.78015160
      4.68000000	     -7.66485203	      4.19611080	    -11.03780476	     -0.59792099	     -0.04920666	      0.61883813	     -9.38768811	     -3.36950557	      4.16640421	    -13.91548565	     12.78628605	      1.97764029	      6.17468505	     36.35206897	     -1.80918634	    -22.37520386	    -16.88749527	     -3.80546721	     11.55003076	      9.57091527	      5.98376765	     -3.83168048	     14.77768460
      4.68500000	     -7.74690291	      4.59891924	    -11.07727345	     -0.59039713	     -0.05014354	      0.61873876	     -9.40989772	     -3.91274226	      4.04727400	    -14.50355353	     12.47796032	      2.28313274	      6.37732639	     36.45882461	     -1.44235645	    -22.33263701	    -17.46815829	     -4.67329101	     11.03594116	     10.48659665	      6.24116171	     -4.30974048	     14.76680351
      4.69000000	     -7.83635080	      5.02323731	    -11.10934314	     -0.58286912	     -0.05099540	      0.61859999	     -9.38183370	     -4.48222775	      3.93213729	    -15.15655707	     12.08876452	      2.60689974	      6.61502044	     36.58550230	     -1.05052842	    -22.23570423	    -18.05222840	     -5.54338249	     10.48714553	     11.28753558	      6.50802960	     -4.80946944	     14.73420849
      4.69500000	     -7.91393267	      5.44567825	    -11.06553839	     -0.57529514	     -0.05177030	      0.61836012	     -9.35990127	     -5.05122374	      3.72937652	    -15.83690796	     11.61615505	      2.98894577	      6.93310538	     36.73024771	     -0.61974766	    -22.06589087	    -18.67207462	     -6.43503080	      9.89079995	     12.18459516	      6.75984165	     -5.32112545	     14.62112317
      4.70000000	     -8.00317460	      5.88112790	    -11.09347453	     -0.56776371	     -0.05245378	      0.61817627	     -9.23903103	     -5.64384221	      3.61362312	    -16.64073443	     11.05270913	      3.36626220	      7.25528001	     36.89206259	     -0.21608034	    -21.86588302	    -19.32886605	     -7.16559065	      9.23837834	     12.73488708	      7.02949478	     -5.82922871	     14.57716795
      4.70500000	     -8.06799822	      6.29669039	    -10.99123831	     -0.56016274	     -0.05306589	      0.61784108	     -9.15753873	     -6.21681896	      3.35044062	    -17.45854356	     10.40349490	      3.83617514	      7.73611903	     37.05845350	      0.24383952	    -21.58170551	    -20.03475274	     -7.87123527	      8.56990117	     13.44200683	      7.25870162	     -6.34494600	     14.37591413
      4.71000000	     -8.15556886	      6.69923088	    -10.96940952	     -0.55260491	     -0.05359218	      0.61756707	     -8.96553180	     -6.78635170	      3.19278489	    -18.39960780	      9.64116918	      4.31922127	      8.17197841	     37.24879196	      0.64559020	    -21.29316418	    -20.79593648	     -8.36462104	      7.88668379	     13.79238651	      7.51816439	     -6.82162033	     14.32352137
      4.71500000	     -8.22865616	      7.07569919	    -10.87291958	     -0.54501323	     -0.05404472	      0.61719176	     -8.76641452	     -7.33534679	      2.95397325	    -19.40396219	      8.77924021	      4.88663050	      8.71139287	     37.42871748	      1.07150299	    -20.96367083	    -21.58912502	     -8.72563648	      7.25392493	     14.13313622	      7.74918817	     -7.28628644	     14.15819199
      4.72000000	     -8.29034823	      7.41203262	    -10.76262521	     -0.53743955	     -0.05439684	      0.61679673	     -8.53278386	     -7.85018071	      2.72149793	    -20.49223005	      7.79354515	      5.48863996	      9.32648484	     37.58272534	      1.47372979	    -20.63350833	    -22.39571132	     -8.92502209	      6.69722139	     14.41853635	      7.95584886	     -7.71151169	     13.98328265
      4.72500000	     -8.36864971	      7.73067945	    -10.63706345	     -0.52987023	     -0.05467118	      0.61640348	     -8.22882384	     -8.34413095	      2.52825512	    -21.67485326	      6.70459013	      6.11158364	      9.88438042	     37.73353038	      1.86089441	    -20.36581582	    -23.20074851	     -8.97678832	      6.27371898	     14.60184453	      8.17551401	     -8.11946421	     13.77554190
      4.73000000	     -8.37520615	      8.00173396	    -10.47557027	     -0.52233533	     -0.05476326	      0.61592437	     -7.96935809	     -8.81040549	      2.28108016	    -22.88927517	      5.43247959	      6.65706637	     10.87977932	     37.75998910	      2.27588173	    -19.99508997	    -23.93154364	     -8.92338179	      5.81177535	     14.82402774	      8.29285339	     -8.49343811	     13.54890540
      4.73500000	     -8.42016716	      8.17983079	    -10.32991638	     -0.51489472	     -0.05480033	      0.61547333	     -7.60458104	     -9.17373326	      2.13433845	    -24.23061879	      4.09460851	      7.40024388	     11.37963373	     37.80279721	      2.55425741	    -19.79997784	    -24.69303573	     -8.66051030	      5.67924390	     14.98631515	      8.42562378	     -8.75274946	     13.33333018
      4.74000000	     -8.46883153	      8.38236791	    -10.14644250	     -0.50744156	     -0.05473583	      0.61497030	     -7.17884477	     -9.57161183	      1.92441402	    -25.64157137	      2.65955011	      8.12187767	     12.03822039	     37.79021628	      2.91085485	    -19.54077944	    -25.33821868	     -8.36450611	      5.47786461	     15.11053534	      8.56735720	     -9.04787863	     13.07578438
